<svg id="Layer_1" height="512" viewBox="0 0 150 150" width="512" xmlns="http://www.w3.org/2000/svg" data-name="Layer 1"><circle cx="75" cy="75" fill="#029bc5" r="64"/><path d="m50.4 58.31v46.81c0 2.41 11 4.36 24.6 4.36s24.6-2 24.6-4.36v-46.81z" fill="#e1e6e9"/><path d="m75 54c-13.58 0-24.6 2-24.6 4.36s11 4.36 24.6 4.36 24.6-2 24.6-4.36-11.02-4.36-24.6-4.36z" fill="#ebf0f3"/><path d="m48.19 51.15v7.57c0 2.62 12 4.75 26.81 4.75s26.81-2.13 26.81-4.75v-7.57z" fill="#d5d6db"/><path d="m75 46.39c-14.81 0-26.81 2.13-26.81 4.76s12 4.75 26.81 4.75 26.81-2.13 26.81-4.75-12-4.76-26.81-4.76z" fill="#ebf0f3"/><g fill="#d5d6db"><path d="m59.78 68.31a2 2 0 0 0 -1.84 2.18v30.23a1.87 1.87 0 1 0 3.68 0v-30.23a2 2 0 0 0 -1.84-2.18z"/><path d="m69.93 68.31a2 2 0 0 0 -1.84 2.18v30.23a1.87 1.87 0 1 0 3.68 0v-30.23a2 2 0 0 0 -1.84-2.18z"/><path d="m80.07 68.31a2 2 0 0 0 -1.84 2.18v30.23a1.87 1.87 0 1 0 3.68 0v-30.23a2 2 0 0 0 -1.84-2.18z"/><path d="m90.22 68.31a2 2 0 0 0 -1.84 2.18v30.23a1.87 1.87 0 1 0 3.68 0v-30.23a2 2 0 0 0 -1.84-2.18z"/><path d="m84.71 50.66h-3.62v-6.2a.32.32 0 0 0 -.32-.31h-11.54a.32.32 0 0 0 -.32.31v6.2h-3.62v-6.2a4 4 0 0 1 3.94-3.94h11.54a4 4 0 0 1 3.94 3.94z"/></g></svg>