<?xml version="1.0" encoding="UTF-8"?>
<svg xmlns="http://www.w3.org/2000/svg" xmlns:xlink="http://www.w3.org/1999/xlink" width="24pt" height="24pt" viewBox="0 0 24 24" version="1.1">
<g id="surface1">
<path style=" stroke:none;fill-rule:nonzero;fill:rgb(0.784314%,60.784314%,77.254902%);fill-opacity:1;" d="M 21.980469 11.859375 C 21.980469 17.449219 17.449219 21.980469 11.859375 21.980469 C 6.269531 21.980469 1.738281 17.449219 1.738281 11.859375 C 1.738281 6.269531 6.269531 1.738281 11.859375 1.738281 C 17.449219 1.738281 21.980469 6.269531 21.980469 11.859375 Z M 21.980469 11.859375 "/>
<path style=" stroke:none;fill-rule:nonzero;fill:rgb(88.235294%,90.196078%,91.372549%);fill-opacity:1;" d="M 7.972656 9.222656 L 7.972656 16.625 C 7.972656 17.003906 9.710938 17.3125 11.859375 17.3125 C 14.011719 17.3125 15.75 16.996094 15.75 16.625 L 15.75 9.222656 Z M 7.972656 9.222656 "/>
<path style=" stroke:none;fill-rule:nonzero;fill:rgb(92.156863%,94.117647%,95.294118%);fill-opacity:1;" d="M 11.859375 8.539062 C 9.714844 8.539062 7.972656 8.855469 7.972656 9.226562 C 7.972656 9.601562 9.710938 9.917969 11.859375 9.917969 C 14.011719 9.917969 15.75 9.601562 15.75 9.226562 C 15.75 8.855469 14.007812 8.539062 11.859375 8.539062 Z M 11.859375 8.539062 "/>
<path style=" stroke:none;fill-rule:nonzero;fill:rgb(83.529412%,83.921569%,85.882353%);fill-opacity:1;" d="M 7.621094 8.089844 L 7.621094 9.285156 C 7.621094 9.699219 9.519531 10.039062 11.859375 10.039062 C 14.203125 10.039062 16.101562 9.699219 16.101562 9.285156 L 16.101562 8.089844 Z M 7.621094 8.089844 "/>
<path style=" stroke:none;fill-rule:nonzero;fill:rgb(92.156863%,94.117647%,95.294118%);fill-opacity:1;" d="M 11.859375 7.335938 C 9.519531 7.335938 7.621094 7.671875 7.621094 8.089844 C 7.621094 8.503906 9.519531 8.839844 11.859375 8.839844 C 14.203125 8.839844 16.101562 8.503906 16.101562 8.089844 C 16.101562 7.675781 14.203125 7.335938 11.859375 7.335938 Z M 11.859375 7.335938 "/>
<path style=" stroke:none;fill-rule:nonzero;fill:rgb(83.529412%,83.921569%,85.882353%);fill-opacity:1;" d="M 9.453125 10.804688 C 9.371094 10.808594 9.289062 10.847656 9.234375 10.914062 C 9.179688 10.976562 9.152344 11.0625 9.164062 11.144531 L 9.164062 15.925781 C 9.140625 16.042969 9.191406 16.160156 9.289062 16.226562 C 9.386719 16.292969 9.515625 16.292969 9.617188 16.226562 C 9.714844 16.160156 9.765625 16.042969 9.746094 15.925781 L 9.746094 11.144531 C 9.75 11.0625 9.726562 10.976562 9.671875 10.914062 C 9.617188 10.847656 9.539062 10.808594 9.453125 10.804688 Z M 9.453125 10.804688 "/>
<path style=" stroke:none;fill-rule:nonzero;fill:rgb(83.529412%,83.921569%,85.882353%);fill-opacity:1;" d="M 11.058594 10.804688 C 10.976562 10.808594 10.894531 10.847656 10.839844 10.914062 C 10.785156 10.976562 10.757812 11.0625 10.769531 11.144531 L 10.769531 15.925781 C 10.746094 16.042969 10.796875 16.160156 10.894531 16.226562 C 10.992188 16.292969 11.121094 16.292969 11.222656 16.226562 C 11.320312 16.160156 11.371094 16.042969 11.351562 15.925781 L 11.351562 11.144531 C 11.355469 11.0625 11.332031 10.976562 11.277344 10.914062 C 11.222656 10.847656 11.144531 10.808594 11.058594 10.804688 Z M 11.058594 10.804688 "/>
<path style=" stroke:none;fill-rule:nonzero;fill:rgb(83.529412%,83.921569%,85.882353%);fill-opacity:1;" d="M 12.660156 10.804688 C 12.578125 10.808594 12.5 10.847656 12.445312 10.914062 C 12.390625 10.976562 12.363281 11.0625 12.371094 11.144531 L 12.371094 15.925781 C 12.351562 16.042969 12.398438 16.160156 12.5 16.226562 C 12.597656 16.292969 12.726562 16.292969 12.824219 16.226562 C 12.921875 16.160156 12.976562 16.042969 12.953125 15.925781 L 12.953125 11.144531 C 12.960938 11.0625 12.933594 10.976562 12.878906 10.914062 C 12.824219 10.847656 12.746094 10.808594 12.660156 10.804688 Z M 12.660156 10.804688 "/>
<path style=" stroke:none;fill-rule:nonzero;fill:rgb(83.529412%,83.921569%,85.882353%);fill-opacity:1;" d="M 14.265625 10.804688 C 14.183594 10.808594 14.101562 10.847656 14.050781 10.914062 C 13.996094 10.976562 13.96875 11.0625 13.976562 11.144531 L 13.976562 15.925781 C 13.957031 16.042969 14.003906 16.160156 14.101562 16.226562 C 14.203125 16.292969 14.332031 16.292969 14.429688 16.226562 C 14.527344 16.160156 14.582031 16.042969 14.558594 15.925781 L 14.558594 11.144531 C 14.566406 11.0625 14.539062 10.976562 14.484375 10.914062 C 14.429688 10.847656 14.351562 10.808594 14.265625 10.804688 Z M 14.265625 10.804688 "/>
<path style=" stroke:none;fill-rule:nonzero;fill:rgb(83.529412%,83.921569%,85.882353%);fill-opacity:1;" d="M 13.394531 8.011719 L 12.824219 8.011719 L 12.824219 7.03125 C 12.824219 7.003906 12.800781 6.980469 12.773438 6.980469 L 10.949219 6.980469 C 10.921875 6.980469 10.898438 7.003906 10.898438 7.03125 L 10.898438 8.011719 L 10.324219 8.011719 L 10.324219 7.03125 C 10.328125 6.6875 10.605469 6.414062 10.949219 6.40625 L 12.773438 6.40625 C 13.113281 6.414062 13.390625 6.6875 13.394531 7.03125 Z M 13.394531 8.011719 "/>
</g>
</svg>
